PathFileType	3	(X/Y/Z)	C:\Users\koon_\Desktop\
DataRate	CameraRate	NumFrames	NumMarkers	Units	OrigDataRate	OrigDataStartFrame	OrigNumFrames
100.0	100.0	12	27	mm	100.0	1	2788	
Frame#	Time	get:LFHD			get:RFHD			get:LBHD			get:RBHD			get:C7			get:T10			get:CLAV			get:STRN			get:RBAK			get:LSHO			get:LUPA			get:LELB			get:LFRA			get:LWRA			get:LWRB			get:LFIN			get:RSHO			get:RUPA			get:RELB			get:RFRA			get:RWRA			get:RWRB			get:RFIN			get:LASI			get:RASI			get:LPSI			get:RPSI			
		X1	Y1	Z1	X2	Y2	Z2	X3	Y3	Z3	X4	Y4	Z4	X5	Y5	Z5	X6	Y6	Z6	X7	Y7	Z7	X8	Y8	Z8	X9	Y9	Z9	X10	Y10	Z10	X11	Y11	Z11	X12	Y12	Z12	X13	Y13	Z13	X14	Y14	Z14	X15	Y15	Z15	X16	Y16	Z16	X17	Y17	Z17	X18	Y18	Z18	X19	Y19	Z19	X20	Y20	Z20	X21	Y21	Z21	X22	Y22	Z22	X23	Y23	Z23	X24	Y24	Z24	X25	Y25	Z25	X26	Y26	Z26	X27	Y27	Z27	
1	0	1.5135834	1526.875	1.5608158	-121.12498	1532.1976	-78.928322	74.723404	1520.5535	-115.49141	-55.614204	1520.0698	-194.75397	-15.52704	1329.5685	-218.26599	-6.4294043	1116.6754	-259.95822	-14.277	1229.9727	-32.197979	-15.585089	1075.002	5.6312289	-107.17465	1256.6141	-248.55685	149.03291	1326.5823	-138.57608	196.24396	1114.9454	-87.408188	220.81789	1000.6456	-146.92751	210.32266	946.77789	-65.521759	180.09488	777.44244	-29.620581	248.0923	780.07416	-61.363895	243.16606	712.93463	-21.267731	-157.31023	1327.0432	-122.1534	-225.48077	1204.2911	-108.83743	-263.91284	991.69946	-156.42732	-233.75565	863.14661	-61.698734	-228.24353	765.82739	-45.077808	-289.93677	777.80597	-82.964127	-275.22992	706.57477	-27.891176	123.13432	890.22791	-59.581707	-168.44447	910.81445	-67.190208	36.681236	931.59772	-245.32719	-51.098782	931.86536	-251.86295
2	0.01	1.6732633	1526.8312	1.5926505	-121.00375	1532.1949	-78.779877	74.840218	1520.5439	-115.49448	-55.564167	1520.0809	-194.64665	-15.478824	1329.5693	-218.24379	-6.3519244	1116.6932	-259.93936	-14.171741	1229.9695	-32.091854	-16.297199	1074.9119	5.6920929	-107.1263	1256.6086	-248.48444	149.09918	1326.5659	-138.58089	196.31677	1114.9047	-87.483513	220.88852	1000.6309	-147.02489	210.42035	946.73938	-65.565598	180.1629	777.45172	-29.672958	248.1461	780.02386	-61.450695	243.23814	712.90778	-21.368891	-157.24283	1327.0652	-122.05001	-225.40875	1204.3392	-108.7775	-263.85339	991.72876	-156.40025	-233.70584	863.14984	-61.609825	-228.16754	765.86859	-45.046192	-289.87906	777.81213	-82.929535	-275.177	706.57062	-27.887323	123.16284	890.23035	-59.562893	-168.43068	910.79651	-67.250885	36.731041	931.60559	-245.353	-51.106754	931.83752	-251.78897
3	0.02	1.8495625	1526.8226	1.634133	-120.88813	1532.2031	-78.738159	74.96347	1520.5265	-115.49301	-55.487057	1520.0847	-194.5905	-15.399611	1329.6071	-218.24438	-6.3057823	1116.687	-259.90778	-14.728043	1229.8701	-31.981054	-16.251715	1074.9143	5.7481141	-107.05557	1256.6938	-248.51234	149.19244	1326.5479	-138.57951	196.41322	1114.8961	-87.485596	220.93869	1000.625	-147.05632	210.48128	946.7218	-65.658051	180.2021	777.39886	-29.747889	248.18329	780.02112	-61.534985	243.27034	712.86694	-21.416437	-157.12862	1327.0901	-122.01421	-225.3358	1204.3513	-108.78284	-263.83325	991.74902	-156.3242	-233.63419	863.19086	-61.58889	-228.11108	765.88861	-45.039352	-289.80573	777.83746	-82.94545	-275.07907	706.617	-27.870464	123.21031	890.22699	-59.588497	-168.37201	910.8291	-67.209053	36.756931	931.58862	-245.33093	-51.038391	931.85669	-251.88855
4	0.03	2.0508423	1526.7911	1.6346141	-120.76943	1532.1978	-78.609863	75.077827	1520.5336	-115.4978	-55.41304	1520.1188	-194.51784	-15.3515	1329.6078	-218.2222	-6.2537017	1116.7026	-259.95285	-14.625153	1229.8729	-32.108944	-16.185938	1074.917	5.7305207	-107.00326	1256.7114	-248.49452	149.28099	1326.5402	-138.57906	196.48907	1114.8448	-87.523247	220.98976	1000.6064	-147.11154	210.52985	946.68115	-65.675079	180.24922	777.3891	-29.795132	248.24258	779.9726	-61.612091	243.34204	712.84906	-21.509811	-157.05284	1327.1053	-121.96269	-225.27899	1204.3877	-108.72766	-263.77545	991.81781	-156.35411	-233.57744	863.21582	-61.559402	-228.03752	765.88593	-45.028305	-289.75333	777.87775	-82.853653	-275.01843	706.62543	-27.897301	123.2636	890.22223	-59.565472	-168.3054	910.82135	-67.228905	36.784084	931.59021	-245.33069	-51.019394	931.8468	-251.79672
5	0.04	2.2122252	1526.7817	1.6824778	-120.61189	1532.1937	-78.518127	75.18206	1520.5396	-115.4992	-55.325588	1520.1263	-194.46391	-15.250145	1329.6245	-218.17743	-6.2328229	1116.6881	-259.90549	-14.504978	1229.8972	-32.12299	-16.087408	1074.9238	5.7116942	-106.92735	1256.7373	-248.46387	149.38602	1326.4974	-138.57947	196.53647	1114.8076	-87.548897	221.03458	1000.5718	-147.14432	210.62097	946.63379	-65.771187	180.30009	777.35419	-29.869129	248.29712	779.922	-61.69965	243.38713	712.78204	-21.590778	-156.95866	1327.1265	-121.94631	-225.20078	1204.4052	-108.65345	-263.70389	991.83783	-156.32892	-233.51311	863.25574	-61.588726	-227.97322	765.92444	-45.047878	-289.67413	777.94293	-82.851471	-274.93649	706.67114	-27.808735	123.28394	890.203	-59.638023	-168.27803	910.82294	-67.225075	36.83429	931.59113	-245.31267	-50.992584	931.84283	-251.78683
6	0.05	2.4314773	1526.8958	1.5807369	-120.48695	1532.2179	-78.379913	75.298866	1520.5455	-115.56479	-55.275677	1520.1279	-194.40002	-15.171808	1329.6506	-218.18475	-6.1739769	1116.7224	-259.92133	-14.412849	1229.8943	-32.04105	-16.009888	1074.8887	5.7051954	-106.88868	1256.7054	-248.35403	149.46057	1326.4902	-138.58748	196.63734	1114.7977	-87.573517	221.05225	1000.5485	-147.21394	210.66145	946.59552	-65.784348	180.38373	777.28711	-29.945236	248.33061	779.8985	-61.788437	243.38417	712.73608	-21.703184	-156.86636	1327.1486	-121.85062	-225.12013	1204.4315	-108.65701	-263.63226	991.85461	-156.25577	-233.4554	863.27747	-61.453995	-227.89632	765.9245	-45.067764	-289.62469	777.95087	-82.827339	-274.89249	706.71381	-27.754549	123.33703	890.21161	-59.611977	-168.24567	910.83606	-67.176353	36.866039	931.57678	-245.325	-50.944019	931.82489	-251.77718
7	0.06	2.59796	1526.8199	1.6246908	-120.33298	1532.2111	-78.298744	75.421814	1520.5138	-115.55001	-55.225544	1520.1422	-194.31306	-15.101382	1329.6514	-218.13551	-6.1139631	1116.704	-259.8439	-14.341964	1229.8801	-32.051926	-15.935922	1074.8934	5.7253723	-106.82948	1256.7502	-248.33325	149.56313	1326.4735	-138.58488	196.67584	1114.7754	-87.571777	221.08949	1000.5096	-147.22665	210.70683	946.55029	-65.854973	180.45157	777.2334	-30.037777	248.37453	779.84686	-61.882877	243.43315	712.68213	-21.793087	-156.80084	1327.1609	-121.78046	-225.03566	1204.4852	-108.56774	-263.57996	991.91296	-156.23581	-233.40344	863.29779	-60.998814	-227.81749	765.94873	-45.035275	-289.57556	777.99225	-82.820763	-274.84927	706.71442	-27.809313	123.41109	890.19891	-59.620327	-168.1787	910.8338	-67.17952	36.89888	931.5625	-245.32359	-50.918129	931.82001	-251.76564
8	0.07	2.7815604	1526.8131	1.6232171	-120.19221	1532.2194	-78.20546	75.539558	1520.5199	-115.57323	-55.152531	1520.1522	-194.28139	-15.002653	1329.6578	-218.13754	-6.0853138	1116.6986	-259.83243	-14.244187	1229.8475	-32.050087	-15.866656	1074.8798	5.7144966	-106.7597	1256.7789	-248.35489	149.63274	1326.4382	-138.59735	196.76659	1114.7219	-87.643799	221.12663	1000.4562	-147.28961	210.77969	946.50574	-65.91156	180.47505	777.20117	-30.103802	248.41959	779.82202	-61.966759	243.50757	712.62415	-21.89077	-156.6758	1327.1866	-121.81298	-224.97246	1204.4812	-108.55504	-263.51447	991.93579	-156.13791	-233.31044	863.34546	-61.43784	-227.77493	765.966	-45.050602	-289.51459	778.00391	-82.757584	-274.77301	706.77209	-27.757742	123.45901	890.1626	-59.68911	-168.12433	910.86865	-67.132408	36.944767	931.56897	-245.32785	-50.881805	931.84851	-251.83949
9	0.08	2.9696074	1526.7439	1.7574745	-120.06297	1532.2321	-78.105667	75.621849	1520.5223	-115.65905	-55.105206	1520.1431	-194.17874	-14.918797	1329.6603	-218.1339	-6.0620465	1116.7019	-259.85153	-14.14828	1229.8329	-31.931173	-15.794659	1074.8474	5.7114959	-106.70708	1256.8148	-248.33963	149.7361	1326.4105	-138.59943	196.82668	1114.7056	-87.665802	221.18095	1000.4279	-147.3351	210.83728	946.45911	-65.969688	180.54024	777.16223	-30.201426	248.48604	779.78479	-62.062012	243.54494	712.56531	-21.996141	-156.59489	1327.2047	-121.67418	-224.89211	1204.5306	-108.49484	-263.46286	991.98303	-156.18753	-233.2742	863.38538	-61.495682	-227.74738	766.0069	-44.96817	-289.45599	778.07111	-82.775719	-274.7363	706.79553	-27.702269	123.48787	890.16315	-59.67498	-168.08275	910.85266	-67.18808	36.971882	931.57104	-245.32724	-50.845894	931.82556	-251.76811
10	0.09	3.1513214	1526.7466	1.7613597	-119.91904	1532.2241	-78.030296	75.743408	1520.5179	-115.64209	-55.036507	1520.1338	-194.11771	-14.874367	1329.6935	-218.07164	-6.009315	1116.7122	-259.8811	-14.058818	1229.8389	-31.957306	-15.728878	1074.8494	5.6948724	-106.64503	1256.798	-248.23116	149.83502	1326.3982	-138.58066	196.92073	1114.67	-87.726204	221.25282	1000.3989	-147.3705	210.85855	946.41907	-66.030685	180.58347	777.09735	-30.321379	248.53302	779.72864	-62.087753	243.57495	712.52039	-22.075438	-156.49466	1327.2253	-121.64532	-224.80186	1204.5292	-108.44787	-263.41501	992.01593	-156.10553	-233.19287	863.40631	-61.338501	-227.71092	766.02045	-44.961811	-289.40308	778.12549	-82.726944	-274.68594	706.8299	-27.674784	123.52943	890.15778	-59.703808	-168.01749	910.84363	-67.145485	37.049725	931.56329	-245.3327	-50.813202	931.83545	-251.7986
11	0.1	3.3668528	1526.7385	1.7742631	-119.7658	1532.2162	-77.963989	75.826752	1520.521	-115.68555	-54.958645	1520.1749	-194.09445	-14.801931	1329.6986	-218.07524	-5.9895	1116.7031	-259.84763	-13.96341	1229.8041	-31.931517	-15.641151	1074.8567	5.6697311	-106.58775	1256.8353	-248.23708	149.92328	1326.3615	-138.60403	196.96436	1114.6162	-87.753632	221.25439	1000.3717	-147.42084	210.92432	946.38397	-66.130379	180.63727	777.06305	-30.408773	248.55391	779.66138	-62.231796	243.6044	712.46973	-22.217102	-156.41647	1327.2584	-121.66299	-224.70961	1204.575	-108.39355	-263.35443	992.06262	-156.07314	-233.12616	863.43304	-61.322025	-227.649	766.02466	-44.960384	-289.33957	778.14655	-82.657227	-274.64395	706.85516	-27.611874	123.57442	890.13629	-59.730453	-167.97055	910.87781	-67.091721	37.059021	931.53973	-245.32268	-50.742085	931.80127	-251.70735
12	0.11	3.5271158	1526.7682	1.7569884	-119.628	1532.2257	-77.868484	75.94783	1520.4951	-115.74965	-54.913284	1520.1591	-194.0235	-14.723502	1329.6827	-218.071	-5.9423208	1116.6907	-259.78906	-13.873577	1229.8099	-31.95738	-15.571346	1074.8234	5.650023	-106.54815	1256.7982	-248.1375	150.00641	1326.3351	-138.61485	197.04796	1114.5942	-87.810081	221.29871	1000.3044	-147.47757	210.99107	946.31042	-66.17968	180.66904	777.01184	-30.480156	248.6291	779.59998	-62.327377	243.62387	712.39923	-22.325073	-156.29376	1327.2791	-121.58569	-224.61169	1204.6091	-108.3329	-263.26242	992.11182	-156.02243	-233.07567	863.51282	-60.417412	-227.58945	766.03339	-44.914726	-289.28781	778.15967	-82.585869	-274.60303	706.89795	-27.582287	123.62426	890.12854	-59.761894	-167.89415	910.87671	-67.103531	37.109341	931.54785	-245.3483	-50.713188	931.80792	-251.71471
